<?xml version="1.0" encoding="utf-8"?>
<!-- Generator: Adobe Illustrator 17.0.0, SVG Export Plug-In . SVG Version: 6.00 Build 0)  -->
<!DOCTYPE svg PUBLIC "-//W3C//DTD SVG 1.1//EN" "http://www.w3.org/Graphics/SVG/1.1/DTD/svg11.dtd">
<svg version="1.1" xmlns="http://www.w3.org/2000/svg" xmlns:xlink="http://www.w3.org/1999/xlink" x="0px" y="0px" width="1000px"
	 height="327.662px" viewBox="0 0 1000 327.662" enable-background="new 0 0 1000 327.662" xml:space="preserve">
<g id="GLS">
</g>
<g id="PostNord">
	<g>
		<path fill="#02A0D6" d="M767.592,206.598c0,44.708-36.419,63.44-70.704,63.44c-34.072,0-69.211-18.299-69.211-61.52
			c0-44.288,35.772-63.447,70.704-63.447C732.453,145.07,767.592,163.586,767.592,206.598z M721.38,207.881
			c0-14.696-9.58-24.703-23.853-24.703c-14.479,0-24.073,10.007-24.073,24.703c0,13.833,9.807,24.059,24.073,24.059
			C712.014,231.94,721.38,221.713,721.38,207.881z M136.693,207.881c0,34.072-23.429,62.157-59.841,62.157
			c-22.362,0-32.798-11.066-32.798-11.066v41.298H0.608V148.897h43.445V160.4c0,0,11.289-15.329,35.992-15.329
			C116.247,145.07,136.693,172.959,136.693,207.881z M90.691,207.881c0-14.696-9.582-24.703-23.852-24.703
			c-14.479,0-24.066,10.007-24.066,24.703c0,13.833,9.796,24.059,24.066,24.059C81.322,231.94,90.691,221.713,90.691,207.881z
			 M821.373,209.791c0-17.882,10.846-23.419,25.339-23.419c8.933,0,14.686,2.126,14.686,2.126l1.074-40.025
			c0,0-2.781-1.276-10.227-1.276c-24.279,0-30.872,15.329-30.872,15.329v-13.63h-43.452v117.535h43.452V209.791z M999.392,112.496
			v153.936h-43.438v-11.506c0,0-11.286,15.333-35.992,15.333c-36.199,0-56.651-27.892-56.651-62.804
			c0-34.072,23.426-62.171,59.844-62.171c22.366,0,32.799,11.069,32.799,11.069v-35.341L999.392,112.496z M957.221,207.454
			c0-13.843-9.786-24.059-24.045-24.059c-14.479,0-23.853,10.216-23.853,24.059c0,14.679,9.58,24.692,23.853,24.692
			C947.641,232.146,957.221,222.133,957.221,207.454z M573.902,145.07c-25.339,0-34.505,15.329-34.505,15.329v-11.503h-43.442
			v117.535h43.442v-60.257c0-14.902,5.547-21.719,18.952-21.719c13.42,0,15.34,11.073,15.34,25.129v56.847h43.865v-72.18
			C617.554,161.886,602.022,145.07,573.902,145.07z M452.084,122.498h-43.441v143.933h43.441v-80.907h20.45l19.806-36.628h-40.255
			V122.498z M354.765,191.482c-14.06-2.13-20.229-2.13-20.229-7.66c0-4.683,5.743-6.607,17.032-6.607
			c19.17,0,35.993,6.39,35.993,6.39l7.666-33.002c0,0-18.529-5.32-43.232-5.32c-41.525,0-63.247,15.969-63.247,41.515
			c0,19.799,11.709,31.516,45.998,35.982c14.483,1.92,19.806,2.766,19.806,8.093c0,5.113-5.75,6.813-15.756,6.813
			c-21.726,0-42.171-9.153-42.171-9.153l-8.73,34.072c0,0,20.443,7.226,47.068,7.226c44.718,0,65.374-15.759,65.374-41.518
			C400.336,207.881,389.26,196.804,354.765,191.482z M283.844,206.598c0,44.708-36.415,63.44-70.7,63.44
			c-34.072,0-69.211-18.299-69.211-61.52c0-44.288,35.775-63.447,70.7-63.447C248.705,145.07,283.844,163.586,283.844,206.598z
			 M237.632,207.881c0-14.696-9.58-24.703-23.853-24.703c-14.476,0-24.058,10.007-24.058,24.703
			c0,13.833,9.793,24.059,24.058,24.059C228.263,231.94,237.632,221.713,237.632,207.881z"/>
	</g>
</g>
<g id="Bring">
</g>
<g id="Rulers">
</g>
</svg>
